<svg width="201" height="200" viewBox="0 0 201 200" fill="none" xmlns="http://www.w3.org/2000/svg">
<path d="M79.1048 0.734984C78.1714 1.00165 77.3714 2.46832 77.3714 3.80165C77.3714 5.13498 76.4381 6.46832 75.3714 7.00165C74.0381 7.53498 73.3714 6.86832 73.3714 5.13498C73.3714 2.20165 73.2381 2.06832 70.1714 3.26832C68.9714 3.66832 68.0381 5.13498 68.0381 6.46832C68.0381 7.80165 66.8381 9.40165 65.2381 9.80165C62.0381 10.8683 62.4381 15.2683 65.7714 14.735C67.1048 14.4683 68.0381 15.2683 68.0381 16.4683C68.0381 17.535 67.1048 18.4683 66.0381 18.4683C63.7714 18.4683 63.3714 21.8017 65.3714 23.135C66.1714 23.535 66.7048 25.135 66.7048 26.735C66.7048 28.6017 67.3714 29.135 68.8381 28.6017C70.0381 28.2017 71.3714 27.8017 72.0381 27.8017C72.7048 27.8017 73.3714 26.4683 73.6381 24.8683C74.1714 21.135 77.3714 20.0683 77.3714 23.535C77.3714 25.535 78.0381 26.0683 80.0381 25.535C81.5048 25.135 82.7048 23.6683 82.7048 22.2017C82.7048 20.735 83.9048 19.2683 85.3714 18.8683C88.3048 18.0683 88.3048 18.0683 87.2381 15.2683C86.8381 14.0683 85.6381 13.135 84.5714 13.135C82.1714 13.135 82.1714 10.6017 84.5714 9.66832C85.6381 9.26832 86.1714 7.93498 85.7714 6.33498C85.3714 5.00165 84.5714 4.20165 83.9048 4.60165C83.2381 5.00165 82.7048 4.06832 82.7048 2.60165C82.7048 -0.198349 82.0381 -0.59835 79.1048 0.734984ZM83.2381 6.86832C84.3048 7.66832 84.3048 8.20165 83.1048 8.73498C80.5714 9.66832 80.8381 16.335 83.3714 15.2683C84.4381 14.8683 85.3714 15.135 85.3714 15.6683C85.3714 16.335 84.4381 17.135 83.3714 17.6683C82.3048 18.0683 81.3714 19.6683 81.3714 21.135C81.3714 22.6017 80.8381 23.8017 80.0381 23.8017C79.3714 23.8017 78.7048 22.8683 78.7048 21.8017C78.7048 17.6683 70.8381 20.0683 70.5714 24.335C70.4381 26.4683 70.3048 26.6017 69.7714 24.735C69.5048 23.535 68.3048 22.4683 67.2381 22.4683C66.1714 22.4683 65.3714 21.8017 65.3714 21.135C65.3714 20.335 66.3048 19.8017 67.3714 19.8017C70.8381 19.8017 69.9048 13.4017 66.4381 12.735L63.3714 12.2017L66.4381 11.135C68.0381 10.6017 69.3714 9.00165 69.3714 7.66832C69.3714 6.20165 70.0381 5.13498 70.7048 5.13498C71.5048 5.13498 72.0381 6.06832 72.0381 7.26832C72.0381 8.73498 72.7048 9.13498 74.1714 8.60165C75.3714 8.20165 76.8381 7.80165 77.5048 7.80165C78.1714 7.80165 78.7048 6.73498 78.7048 5.40165C78.7048 1.93498 80.5714 0.334984 81.2381 3.40165C81.5048 4.73498 82.3048 6.33498 83.2381 6.86832Z" fill="white"/>
<path d="M73.7714 11.4016C72.8381 11.6683 72.0381 13.535 72.0381 15.4016C72.0381 17.935 72.5714 18.6016 74.1714 17.935C75.3714 17.535 76.8381 17.135 77.5048 17.135C78.1715 17.135 78.7048 15.6683 78.7048 13.8016C78.7048 10.6016 77.2381 9.93498 73.7714 11.4016ZM77.3715 13.8016C77.3715 14.8683 76.4381 15.8016 75.3714 15.8016C73.2381 15.8016 72.7048 14.2016 74.3048 12.735C75.7714 11.135 77.3715 11.6683 77.3715 13.8016Z" fill="white"/>
<path d="M123.238 3.93499C122.838 4.73499 120.971 5.13499 119.238 4.73499C115.505 4.06832 113.638 7.66832 116.571 9.93499C118.971 11.6683 118.038 13.135 114.438 13.135C112.571 13.135 111.905 13.935 112.171 16.0683C112.438 17.8017 112.171 19.935 111.638 20.8683C109.905 23.535 114.571 24.335 117.371 21.8017C120.438 19.135 122.705 20.0683 121.771 23.8017C121.238 25.8017 121.771 26.4683 123.771 26.4683C125.238 26.4683 126.705 25.6683 127.105 24.6017C127.505 23.4017 129.105 23.0017 131.238 23.4017C134.038 23.935 134.705 23.6683 134.705 21.2683C134.705 19.8017 134.171 18.4683 133.371 18.4683C130.705 18.4683 132.171 15.935 135.105 15.535C137.505 15.2683 138.038 14.2017 138.305 10.0683C138.571 5.93499 138.171 5.13499 135.905 5.13499C134.438 5.13499 132.971 5.93499 132.571 7.00166C131.505 9.93499 127.771 7.93499 128.705 5.00165C129.371 3.13499 128.838 2.46832 126.838 2.46832C125.371 2.46832 123.771 3.13499 123.238 3.93499ZM126.038 6.33499C124.971 9.66832 130.438 11.135 133.371 8.46832C136.305 5.80166 138.171 5.93499 135.905 8.73499C134.438 10.4683 134.438 11.0017 135.771 11.4017C136.571 11.8017 137.105 12.6017 136.705 13.135C136.305 13.8017 135.238 14.0683 134.305 13.6683C133.371 13.4017 131.905 14.335 130.971 15.8017C129.638 18.0683 129.638 18.6017 131.371 19.2683C134.571 20.6017 133.638 22.6017 130.171 21.6683C128.038 21.135 126.838 21.535 126.305 23.0017C125.771 24.2017 124.838 25.135 124.038 25.135C123.105 25.135 122.971 24.335 123.905 22.6017C125.105 20.4683 124.705 19.935 121.771 19.135C119.105 18.4683 117.638 18.8683 116.438 20.6017C115.505 21.935 114.305 22.6017 113.905 22.0683C113.371 21.535 113.771 20.335 114.705 19.135C115.771 17.8017 115.905 17.135 114.838 17.135C114.038 17.135 113.371 16.4683 113.371 15.6683C113.371 14.8683 114.305 14.4683 115.371 15.0017C116.571 15.4017 117.905 14.6017 118.838 12.8683C120.038 10.6017 120.038 9.80166 118.838 9.40166C116.171 8.46832 117.238 6.06832 120.038 6.86832C121.371 7.26832 123.238 6.73499 124.171 5.66832C126.305 3.13499 126.971 3.40165 126.038 6.33499Z" fill="white"/>
<path d="M121.371 13.135C120.171 15.4017 120.438 16.0683 122.971 17.0017C125.371 17.935 126.571 17.6683 128.438 15.535C131.105 12.335 131.238 12.4683 126.438 11.2683C123.638 10.6017 122.438 11.0017 121.371 13.135ZM127.238 14.6017C126.305 16.0683 122.705 16.2017 122.705 14.735C122.705 12.8683 124.171 11.935 126.171 12.735C127.238 13.135 127.638 13.935 127.238 14.6017Z" fill="white"/>
<path d="M29.9048 27.135C29.3715 28.2016 29.5048 30.0683 29.9048 31.2683C31.1048 34.335 29.5048 36.2016 27.3715 34.4683C24.5715 32.2016 22.3048 34.2016 23.3715 38.0683C23.7715 39.935 23.5048 42.2016 22.7048 43.2683C20.5715 45.6683 22.3048 48.0683 25.3715 47.135C28.0381 46.335 30.1715 48.4683 28.0381 49.8016C26.1715 51.0016 27.3715 52.6016 31.9048 54.8683C36.7048 57.2683 39.3715 55.535 37.2381 51.4016C35.2381 47.8016 38.1715 44.6016 40.3048 48.2016C41.5048 50.6016 41.6381 50.6016 43.3715 48.2016C44.4381 46.735 44.7048 45.0016 44.0381 43.6683C43.2381 42.335 43.3715 41.0016 44.3048 40.0683C46.5715 37.8016 44.4381 34.2016 41.5048 35.135C38.7048 35.935 36.4381 33.8016 38.7048 32.4683C40.5715 31.2683 37.9048 27.8016 35.2381 27.8016C34.1715 27.8016 33.3715 27.135 33.3715 26.4683C33.3715 24.335 30.7048 24.8683 29.9048 27.135ZM33.3715 29.2683C33.3715 30.0683 34.3048 30.335 35.5048 29.935C37.2381 29.2683 37.5048 29.6683 36.9715 31.6683C36.0381 35.2683 39.5048 39.935 41.2381 37.2683C41.9048 36.2016 42.7048 36.0683 43.2381 36.8683C43.6381 37.6683 43.3715 38.735 42.7048 39.135C41.7715 39.6683 41.5048 41.8016 42.0381 44.2016C42.7048 48.0683 42.5715 48.2016 40.9715 46.2016C39.2381 43.935 38.9715 43.935 36.8381 46.335C35.2381 48.2016 34.7048 49.935 35.5048 52.0683C36.3048 54.735 36.1715 54.8683 34.3048 53.4016C33.1048 52.335 31.5048 51.935 30.5715 52.4683C29.5048 53.135 29.3715 52.6016 30.0381 50.6016C31.2381 46.8683 28.4381 43.135 26.0381 45.135C24.9715 46.0683 23.9048 46.0683 23.5048 45.4016C23.1048 44.6016 23.6381 43.4016 24.7048 42.4683C26.3048 41.135 26.4381 40.335 25.2381 38.8683C24.3048 37.935 24.0381 36.6016 24.5715 36.2016C25.1048 35.6683 26.0381 36.0683 26.8381 37.135C27.9048 38.8683 28.4381 38.735 30.1715 36.4683C31.2381 35.0016 31.7715 32.4683 31.3715 30.735C30.9715 29.135 31.2381 27.8016 32.0381 27.8016C32.7048 27.8016 33.3715 28.4683 33.3715 29.2683Z" fill="white"/>
<path d="M31.5048 38.335C29.6381 40.4683 29.5048 41.4017 30.7048 43.8017C32.1715 46.6017 32.3048 46.6017 34.8381 44.335C37.7715 41.6683 37.9048 41.0017 35.6381 37.935C34.0381 35.8017 33.7715 35.8017 31.5048 38.335ZM35.1048 41.8017C34.7048 42.8683 33.9048 43.8017 33.2381 43.8017C31.9048 43.8017 31.6381 40.6017 32.8381 39.4017C34.3048 37.935 36.0381 39.8017 35.1048 41.8017Z" fill="white"/>
<path d="M162.838 29.535C162.038 30.6016 161.638 32.4683 162.171 33.6683C162.705 35.0016 162.305 35.8016 160.971 35.8016C159.905 35.8016 158.705 35.0016 158.305 34.0683C157.905 32.8683 157.371 32.8683 155.638 34.335C154.438 35.2683 153.771 36.6016 154.171 37.2683C154.571 37.935 154.038 38.8683 152.838 39.2683C149.638 40.4683 151.905 44.0683 155.505 43.4016C159.371 42.735 162.571 45.6683 159.238 47.0016C157.505 47.6683 157.371 48.2016 158.705 49.935C159.638 51.0016 161.371 51.535 162.438 51.135C163.505 50.735 165.505 51.2683 166.705 52.4683C168.705 54.335 169.238 54.335 170.571 52.6016C171.505 51.535 171.905 49.935 171.505 49.2683C170.305 47.2683 173.238 46.0683 175.238 47.6683C176.571 48.735 177.505 48.6016 178.705 47.135C179.638 46.0683 179.905 45.135 179.238 45.135C178.571 45.135 179.105 44.4683 180.305 43.6683C183.638 41.8016 181.771 38.0683 177.905 39.0016C174.438 39.935 172.038 37.4016 174.838 35.8016C177.238 34.335 173.905 30.335 171.238 31.4016C170.171 31.8016 168.171 31.135 166.838 29.935C164.838 28.0683 164.171 28.0683 162.838 29.535ZM166.571 32.335C167.505 33.4016 169.505 33.8016 171.771 33.4016C175.238 32.8683 175.238 32.8683 172.705 34.8683C170.438 36.6016 170.438 37.135 172.038 39.135C173.238 40.4683 174.971 41.0016 176.971 40.4683C178.705 40.0683 180.038 40.335 180.038 41.135C180.038 41.8016 179.505 42.4683 178.705 42.4683C178.038 42.4683 177.371 43.4016 177.371 44.6016C177.371 45.935 176.571 46.335 174.838 45.8016C170.705 44.6016 167.905 46.335 169.505 49.2683C170.838 51.935 168.971 53.0016 167.238 50.335C166.838 49.535 164.971 49.135 163.238 49.535C159.638 50.2016 158.838 48.4683 162.171 47.2683C165.771 45.935 160.438 40.735 156.438 41.8016C154.705 42.2016 153.371 41.935 153.371 41.135C153.371 40.4683 154.038 39.8016 154.705 39.8016C155.505 39.8016 156.038 38.8683 156.038 37.8016C156.038 36.335 156.971 35.935 159.105 36.4683C160.705 36.8683 162.838 36.6016 163.905 35.935C165.505 34.8683 165.505 34.335 164.171 32.6016C163.105 31.4016 162.971 30.4683 163.771 30.4683C164.438 30.4683 165.771 31.2683 166.571 32.335Z" fill="white"/>
<path d="M163.638 38.6016C161.238 39.935 161.238 40.2016 163.505 42.6016C165.105 44.335 166.705 44.8683 168.571 44.335C172.571 43.135 172.705 42.735 170.038 39.8016C167.238 36.735 166.971 36.735 163.638 38.6016ZM168.705 41.0016C170.038 43.2683 167.105 43.8016 165.371 41.8016C164.038 40.2016 164.038 39.8016 165.771 39.8016C166.971 39.8016 168.171 40.335 168.705 41.0016Z" fill="white"/>
<path d="M36.3048 88.735L36.7048 108.468L41.7715 108.868L46.7048 109.268V89.2683V69.135H41.3715H35.9048L36.3048 88.735ZM45.3715 88.4683V106.468H41.3715H37.3715V88.4683V70.4683H41.3715H45.3715V88.4683Z" fill="white"/>
<mask id="path-10-inside-1_101_3" fill="white">
<path d="M55.3714 72.4683C52.1714 75.535 52.0381 76.2017 52.0381 95.8017C52.0381 115.402 52.1714 116.068 55.3714 119.135C58.5715 122.468 58.9715 122.468 82.0381 122.468H105.371V117.135V111.802H84.0381H62.7048V95.8017V79.8017H84.0381H105.371V74.4683V69.135H82.0381C58.9715 69.135 58.5715 69.135 55.3714 72.4683ZM104.038 74.4683V78.4683H82.7048H61.3715V95.8017V113.135H82.7048H104.038V117.135V121.135H81.7715C52.0381 121.135 53.3714 122.335 53.3714 95.935C53.3714 69.2683 52.0381 70.4683 81.6381 70.4683H104.038V74.4683Z"/>
</mask>
<path d="M55.3714 72.4683C52.1714 75.535 52.0381 76.2017 52.0381 95.8017C52.0381 115.402 52.1714 116.068 55.3714 119.135C58.5715 122.468 58.9715 122.468 82.0381 122.468H105.371V117.135V111.802H84.0381H62.7048V95.8017V79.8017H84.0381H105.371V74.4683V69.135H82.0381C58.9715 69.135 58.5715 69.135 55.3714 72.4683ZM104.038 74.4683V78.4683H82.7048H61.3715V95.8017V113.135H82.7048H104.038V117.135V121.135H81.7715C52.0381 121.135 53.3714 122.335 53.3714 95.935C53.3714 69.2683 52.0381 70.4683 81.6381 70.4683H104.038V74.4683Z" fill="white"/>
<path d="M55.3714 72.4683L121.018 135.489L119.704 136.857L118.335 138.169L55.3714 72.4683ZM55.3714 119.135L118.335 53.4341L119.704 54.7464L121.018 56.1146L55.3714 119.135ZM105.371 122.468H196.371V213.468H105.371V122.468ZM105.371 111.802V20.8017H196.371V111.802H105.371ZM62.7048 111.802V202.802H-28.2952V111.802H62.7048ZM62.7048 79.8017H-28.2952V-11.1983H62.7048V79.8017ZM105.371 79.8017H196.371V170.802H105.371V79.8017ZM105.371 69.135V-21.865H196.371V69.135H105.371ZM104.038 78.4683H195.038V169.468H104.038V78.4683ZM61.3715 78.4683H-29.6285V-12.5317H61.3715V78.4683ZM61.3715 113.135V204.135H-29.6285V113.135H61.3715ZM104.038 113.135V22.135H195.038V113.135H104.038ZM104.038 121.135H195.038V212.135H104.038V121.135ZM104.038 70.4683V-20.5317H195.038V70.4683H104.038ZM118.335 138.169C118.346 138.159 118.458 138.051 118.625 137.888C118.795 137.723 119.064 137.458 119.401 137.119C120.057 136.458 121.142 135.339 122.441 133.872C125.186 130.772 128.806 126.21 132.282 120.197C139.605 107.532 141.813 96.1852 142.57 90.9444C143.191 86.6465 143.137 84.0206 143.087 86.3019C143.05 87.9973 143.038 90.692 143.038 95.8017H-38.9619C-38.9619 89.8291 -39.1825 76.1546 -37.5605 64.9256C-36.3702 56.6847 -33.5285 43.3714 -25.2813 29.1059C-17.6468 15.9003 -8.25448 7.40233 -7.59194 6.76739L118.335 138.169ZM143.038 95.8017C143.038 100.911 143.05 103.606 143.087 105.301C143.137 107.583 143.191 104.957 142.57 100.659C141.813 95.4181 139.605 84.0714 132.282 71.4059C128.806 65.3933 125.186 60.8312 122.441 57.731C121.142 56.2641 120.057 55.1454 119.401 54.4846C119.064 54.1456 118.795 53.8803 118.625 53.715C118.458 53.5522 118.346 53.4447 118.335 53.4341L-7.59194 184.836C-8.25448 184.201 -17.6468 175.703 -25.2813 162.497C-33.5285 148.232 -36.3702 134.919 -37.5605 126.678C-39.1825 115.449 -38.9619 101.774 -38.9619 95.8017H143.038ZM121.018 56.1146C122.389 57.5428 114.401 48.459 101.672 41.4216C88.2457 33.9994 76.4551 32.2361 72.3776 31.734C68.849 31.2994 66.9508 31.3795 70.0128 31.4274C72.4622 31.4657 75.9667 31.4683 82.0381 31.4683V213.468C74.3951 213.468 60.6618 213.666 50.1319 212.369C42.6711 211.451 28.7389 209.062 13.6171 200.703C-0.808591 192.728 -10.0459 182.394 -10.2748 182.155L121.018 56.1146ZM82.0381 31.4683H105.371V213.468H82.0381V31.4683ZM14.3715 122.468V117.135H196.371V122.468H14.3715ZM14.3715 117.135V111.802H196.371V117.135H14.3715ZM105.371 202.802H84.0381V20.8017H105.371V202.802ZM84.0381 202.802H62.7048V20.8017H84.0381V202.802ZM-28.2952 111.802V95.8017H153.705V111.802H-28.2952ZM-28.2952 95.8017V79.8017H153.705V95.8017H-28.2952ZM62.7048 -11.1983H84.0381V170.802H62.7048V-11.1983ZM84.0381 -11.1983H105.371V170.802H84.0381V-11.1983ZM14.3715 79.8017V74.4683H196.371V79.8017H14.3715ZM14.3715 74.4683V69.135H196.371V74.4683H14.3715ZM105.371 160.135H82.0381V-21.865H105.371V160.135ZM82.0381 160.135C75.9667 160.135 72.4622 160.138 70.0128 160.176C66.9508 160.224 68.849 160.304 72.3776 159.869C76.4551 159.367 88.2457 157.604 101.672 150.182C114.401 143.144 122.389 134.06 121.018 135.489L-10.2748 9.44792C-10.0459 9.2095 -0.808591 -1.12431 13.6171 -9.0992C28.7389 -17.4589 42.6711 -19.8472 50.1319 -20.766C60.6618 -22.0628 74.3951 -21.865 82.0381 -21.865V160.135ZM195.038 74.4683V78.4683H13.0381V74.4683H195.038ZM104.038 169.468H82.7048V-12.5317H104.038V169.468ZM82.7048 169.468H61.3715V-12.5317H82.7048V169.468ZM152.371 78.4683V95.8017H-29.6285V78.4683H152.371ZM152.371 95.8017V113.135H-29.6285V95.8017H152.371ZM61.3715 22.135H82.7048V204.135H61.3715V22.135ZM82.7048 22.135H104.038V204.135H82.7048V22.135ZM195.038 113.135V117.135H13.0381V113.135H195.038ZM195.038 117.135V121.135H13.0381V117.135H195.038ZM104.038 212.135H81.7715V30.135H104.038V212.135ZM81.7715 212.135C77.2723 212.135 66.5299 212.287 58.0782 211.662C52.2242 211.229 22.1205 209.642 -3.95234 186.523C-32.8005 160.944 -36.1539 128.209 -36.9701 119.556C-37.8368 110.368 -37.6286 98.8317 -37.6286 95.935H144.371C144.371 106.238 144.413 104.452 144.226 102.464C144.088 101.011 142.26 72.9265 116.795 50.3468C104.803 39.7131 92.5614 34.8718 84.7932 32.6451C77.6285 30.5915 72.331 30.2192 71.5022 30.1579C71.163 30.1328 71.4039 30.135 81.7715 30.135V212.135ZM-37.6286 95.935C-37.6286 92.9222 -37.8329 81.435 -36.9852 72.2986C-36.2029 63.8672 -33.0005 31.2666 -4.50798 5.59518C21.5829 -17.9124 51.8891 -19.5927 57.8978 -20.0454C66.4098 -20.6866 77.2062 -20.5317 81.6381 -20.5317V161.468C71.27 161.468 71.1331 161.473 71.5701 161.44C72.4605 161.373 77.8658 160.983 85.1474 158.86C93.0695 156.552 105.361 151.581 117.318 140.808C142.443 118.17 144.129 90.2694 144.236 89.113C144.409 87.2517 144.371 85.6144 144.371 95.935H-37.6286ZM81.6381 -20.5317H104.038V161.468H81.6381V-20.5317ZM195.038 70.4683V74.4683H13.0381V70.4683H195.038Z" fill="white" mask="url(#path-10-inside-1_101_3)"/>
<path d="M114.438 71.0017C111.371 73.2683 109.371 78.8683 109.371 85.135C109.371 91.4017 111.371 97.0017 114.438 99.2683C116.038 100.602 122.171 101.002 135.105 101.135H153.371V106.468V111.802H136.705C122.838 111.802 120.038 111.535 120.038 109.802C120.038 108.335 118.571 107.802 114.705 107.802C108.971 107.802 108.305 108.868 110.705 115.268C113.238 121.802 115.105 122.335 136.838 122.468C155.105 122.468 157.105 122.202 159.771 119.802C165.238 114.735 165.371 99.2683 160.171 93.935C157.638 91.4017 155.505 91.135 138.705 90.735L120.038 90.2017V85.0017V79.8017H136.705C150.571 79.8017 153.371 80.0683 153.371 81.8017C153.371 83.2683 154.838 83.8017 158.705 83.8017C164.438 83.8017 165.105 82.735 162.705 76.335C160.171 69.6683 158.305 69.2683 136.705 69.2683C122.305 69.2683 116.038 69.6683 114.438 71.0017ZM158.438 72.735C160.038 74.0683 161.638 76.735 162.171 78.735C162.971 82.2017 162.705 82.4683 158.838 82.4683C156.038 82.4683 154.705 81.8017 154.705 80.4683C154.705 78.735 151.771 78.4683 136.705 78.4683H118.705V85.135V91.8017H136.038C145.905 91.8017 154.705 92.4683 156.571 93.2683C161.105 95.4017 163.238 101.135 162.438 109.402C161.371 120.335 159.638 121.135 136.705 121.135C115.771 121.135 113.105 120.202 111.238 112.735C110.438 109.402 110.705 109.135 114.571 109.135C117.371 109.135 118.705 109.802 118.705 111.135C118.705 112.868 121.638 113.135 136.838 113.135H154.838L154.438 106.735L154.038 100.468L135.105 99.8017C111.771 99.0017 111.371 98.735 111.371 85.0017C111.371 71.0017 112.438 70.4683 136.705 70.4683C152.838 70.4683 156.171 70.8683 158.438 72.735Z" fill="white"/>
<path d="M1.63811 75.6683C1.23811 76.735 1.90477 78.2016 3.10477 79.135C6.30477 81.535 6.03811 85.0016 2.70477 84.2016C-0.495226 83.4016 -1.02856 86.6016 2.03811 89.135C3.10477 90.0683 4.03811 92.2016 4.03811 93.935C4.03811 96.2016 4.83811 97.135 6.70477 97.135C8.17144 97.135 9.37144 96.2016 9.37144 95.135C9.37144 93.935 10.1714 93.535 11.5048 94.0683C12.5714 94.4683 13.2381 95.535 12.8381 96.4683C12.0381 98.6016 16.0381 100.335 17.7714 98.6016C18.4381 97.935 19.7714 97.6683 20.7048 97.935C24.0381 99.2683 24.4381 95.535 21.3714 93.135C18.0381 90.6016 18.7048 87.535 22.4381 88.0683C25.6381 88.6016 26.0381 84.2016 22.8381 83.135C20.7048 82.4683 20.1714 81.535 20.8381 79.0016C21.5048 76.335 21.1048 75.8016 18.8381 75.8016C17.2381 75.8016 16.0381 76.335 16.0381 77.135C16.0381 77.8016 15.1048 78.4683 14.0381 78.4683C12.9714 78.4683 12.0381 77.2683 12.0381 75.8016C12.0381 73.535 11.2381 73.135 7.23811 73.535C4.57144 73.6683 2.03811 74.6016 1.63811 75.6683ZM10.7048 76.4683C10.7048 77.535 11.9048 79.0016 13.3714 79.8016C15.5048 81.0016 16.3048 80.8683 16.8381 79.135C18.0381 76.2016 19.9048 76.735 19.1048 79.8016C18.7048 81.4016 19.2381 82.735 20.5714 83.2683C21.7714 83.6683 22.7048 84.735 22.7048 85.4016C22.7048 86.2016 21.7714 86.4683 20.7048 85.935C17.7714 84.8683 16.3048 91.8016 19.2381 93.4016C22.3048 95.135 21.9048 96.4683 18.0381 96.6016C16.1714 96.735 14.7048 96.0683 14.7048 95.135C14.7048 93.535 11.9048 91.8016 9.23811 91.8016C8.57144 91.8016 8.03811 92.735 8.03811 93.8016C8.03811 94.8683 7.37144 95.8016 6.57144 95.8016C5.63811 95.8016 5.37144 94.4683 5.90477 92.6016C6.57144 90.0683 6.03811 89.135 4.03811 88.4683C2.57144 87.935 1.63811 87.135 2.03811 86.4683C2.43811 85.8016 3.63811 85.535 4.57144 85.935C7.23811 87.0016 8.43811 80.8683 6.03811 79.0016C3.50477 77.0016 3.50477 75.2683 6.03811 76.335C7.10477 76.735 8.03811 76.4683 8.03811 75.8016C8.03811 75.0016 8.70478 74.4683 9.37144 74.4683C10.1714 74.4683 10.7048 75.4016 10.7048 76.4683Z" fill="white"/>
<path d="M9.37144 85.0017C9.37144 88.735 12.3048 91.2683 14.8381 89.6683C16.9714 88.4683 16.1714 83.935 13.5048 82.4683C9.77144 80.4683 9.37144 80.735 9.37144 85.0017ZM14.0381 86.2017C14.0381 88.6017 11.3714 88.2017 10.9714 85.6683C10.5714 84.335 11.1048 83.6683 12.3048 84.0683C13.2381 84.4683 14.0381 85.4017 14.0381 86.2017Z" fill="white"/>
<path d="M178.705 75.8017C178.705 76.4683 177.505 77.135 176.038 77.135C173.105 77.135 172.971 77.2683 174.171 80.335C174.571 81.535 176.171 82.4683 177.505 82.4683C179.105 82.4683 180.038 83.4017 180.038 85.0017C180.038 86.8683 179.371 87.4017 177.371 86.8683C175.905 86.4683 174.705 86.735 174.705 87.535C174.705 89.2683 178.438 93.135 180.171 93.135C180.838 93.135 181.371 94.335 181.371 95.8017C181.371 97.535 182.305 98.4683 184.038 98.4683C185.505 98.4683 186.705 97.535 186.705 96.4683C186.705 95.4017 187.638 94.4683 188.705 94.4683C189.771 94.4683 190.705 95.4017 190.705 96.4683C190.705 98.8683 191.771 99.0017 196.438 96.735C200.705 94.8683 201.371 90.4683 197.371 90.4683C195.638 90.4683 194.705 89.535 194.705 87.8017C194.705 86.0683 195.371 85.4017 196.705 85.935C198.038 86.4683 198.705 85.935 198.705 84.0683C198.705 82.4683 197.505 81.0017 196.038 80.4683C194.571 80.0683 193.371 78.4683 193.371 77.0017C193.371 75.4017 192.438 74.4683 190.705 74.4683C189.238 74.4683 188.038 75.4017 188.038 76.4683C188.038 77.535 187.105 78.4683 186.038 78.4683C184.971 78.4683 184.038 77.535 184.038 76.4683C184.038 75.4017 182.838 74.4683 181.371 74.4683C179.905 74.4683 178.705 75.0017 178.705 75.8017ZM182.705 77.8017C182.705 78.8683 183.238 79.8017 183.905 79.8017C184.571 79.8017 186.038 80.2017 187.238 80.6017C188.838 81.135 189.371 80.6017 189.371 78.6017C189.371 77.0017 190.038 75.8017 190.705 75.8017C191.505 75.8017 192.038 76.8683 192.038 78.2017C192.038 79.6683 193.371 81.4017 195.105 82.2017C197.905 83.535 197.905 83.6683 195.238 83.6683C192.971 83.8017 192.571 84.4683 193.105 87.8017C193.505 90.6017 194.438 91.8017 196.171 91.8017C199.771 91.8017 199.371 93.535 195.371 95.4017C192.705 96.6017 192.038 96.4683 192.038 95.0017C192.038 93.935 191.505 93.135 190.838 93.135C190.171 93.135 188.705 92.735 187.505 92.335C185.905 91.8017 185.371 92.335 185.371 94.335C185.371 95.935 184.838 97.135 184.038 97.135C183.371 97.135 182.705 96.0683 182.705 94.735C182.705 93.2683 181.371 91.535 179.771 90.735C177.371 89.6683 177.238 89.2683 179.105 89.2683C182.438 89.135 182.171 82.4683 178.705 81.535C175.638 80.735 175.105 78.4683 178.038 78.4683C179.105 78.4683 180.038 77.8017 180.038 77.135C180.038 76.335 180.705 75.8017 181.371 75.8017C182.171 75.8017 182.705 76.735 182.705 77.8017Z" fill="white"/>
<path d="M184.305 86.0683C184.571 88.735 185.505 89.935 187.771 90.2016C190.438 90.6016 190.838 90.2016 190.438 86.8683C190.171 84.2016 189.238 83.0016 186.971 82.735C184.305 82.335 183.905 82.735 184.305 86.0683ZM189.105 87.0016C189.505 88.6016 188.971 89.2683 187.771 88.8683C186.838 88.4683 185.771 87.135 185.638 85.935C185.238 84.335 185.771 83.6683 186.971 84.0683C187.905 84.4683 188.971 85.8016 189.105 87.0016Z" fill="white"/>
<mask id="path-17-inside-2_101_3" fill="white">
<path d="M36.0381 117.135V122.468H41.3715H46.7048V117.135V111.802H41.3715H36.0381V117.135ZM45.3715 117.135C45.3715 120.735 44.9715 121.135 41.3715 121.135C38.0381 121.135 37.3714 120.602 37.3714 118.068C37.3714 114.068 38.3048 113.135 42.3048 113.135C44.8381 113.135 45.3715 113.802 45.3715 117.135Z"/>
</mask>
<path d="M36.0381 117.135V122.468H41.3715H46.7048V117.135V111.802H41.3715H36.0381V117.135ZM45.3715 117.135C45.3715 120.735 44.9715 121.135 41.3715 121.135C38.0381 121.135 37.3714 120.602 37.3714 118.068C37.3714 114.068 38.3048 113.135 42.3048 113.135C44.8381 113.135 45.3715 113.802 45.3715 117.135Z" fill="white"/>
<path d="M36.0381 122.468V190.468H-31.9619V122.468H36.0381ZM46.7048 122.468H114.705V190.468H46.7048V122.468ZM46.7048 111.802V43.8017H114.705V111.802H46.7048ZM36.0381 111.802H-31.9619V43.8017H36.0381V111.802ZM104.038 117.135V122.468H-31.9619V117.135H104.038ZM36.0381 54.4683H41.3715V190.468H36.0381V54.4683ZM41.3715 54.4683H46.7048V190.468H41.3715V54.4683ZM-21.2952 122.468V117.135H114.705V122.468H-21.2952ZM-21.2952 117.135V111.802H114.705V117.135H-21.2952ZM46.7048 179.802H41.3715V43.8017H46.7048V179.802ZM41.3715 179.802H36.0381V43.8017H41.3715V179.802ZM104.038 111.802V117.135H-31.9619V111.802H104.038ZM113.371 117.135C113.371 118.09 113.445 123.984 112.264 130.832C110.99 138.219 107.064 154.309 92.8047 168.568C78.5451 182.828 62.4552 186.754 55.0689 188.028C48.2202 189.208 42.3261 189.135 41.3715 189.135V53.135C41.3167 53.135 40.4298 53.1325 39.1439 53.1975C37.9208 53.2593 35.3077 53.428 31.9615 54.005C25.6627 55.091 10.3478 58.6921 -3.36181 72.4017C-17.0714 86.1113 -20.6726 101.426 -21.7586 107.725C-22.3355 111.071 -22.5042 113.684 -22.5661 114.907C-22.6311 116.193 -22.6285 117.08 -22.6285 117.135H113.371ZM41.3715 189.135C39.4435 189.135 34.2507 189.114 28.0332 188.065C21.8795 187.028 9.21411 184.134 -3.41318 174.393C-32.4745 151.974 -30.6286 118.74 -30.6286 118.068H105.371C105.371 116.828 105.43 109.864 102.974 101.157C99.9925 90.5852 93.2263 77.1789 79.6561 66.7105C67.6121 57.4194 55.7384 54.8172 50.6472 53.9587C45.4922 53.0895 41.6327 53.135 41.3715 53.135V189.135ZM-30.6286 118.068C-30.6286 117.493 -32.3904 88.6636 -9.74514 66.0184C12.9001 43.3731 41.7294 45.135 42.3048 45.135V181.135C43.1274 181.135 48.3306 181.173 55.1369 179.602C62.716 177.853 75.1554 173.451 86.4214 162.185C97.6874 150.919 102.089 138.48 103.838 130.9C105.409 124.094 105.371 118.891 105.371 118.068H-30.6286ZM42.3048 45.135C42.9767 45.135 76.2105 43.289 98.6293 72.3504C108.37 84.9776 111.264 97.643 112.302 103.797C113.35 110.014 113.371 115.207 113.371 117.135H-22.6285C-22.6285 117.396 -22.6741 121.256 -21.8048 126.411C-20.9463 131.502 -18.3441 143.376 -9.05308 155.42C1.41538 168.99 14.8217 175.756 25.3934 178.738C34.1004 181.194 41.064 181.135 42.3048 181.135V45.135Z" fill="white" mask="url(#path-17-inside-2_101_3)"/>
<path d="M172.838 123.268C172.305 124.468 172.838 126.068 174.038 127.002C175.371 127.935 175.638 129.135 174.838 130.335C173.771 131.935 173.105 131.935 171.638 130.735C168.838 128.335 167.371 132.735 169.905 135.668C171.371 137.268 171.505 138.468 170.438 140.335C169.371 142.202 169.505 143.135 170.838 143.935C173.371 145.535 174.705 145.402 174.705 143.668C174.705 142.868 175.505 142.468 176.305 142.735C177.238 143.135 178.038 144.468 178.038 145.802C178.038 149.002 186.438 151.268 187.638 148.335C188.038 147.268 187.638 145.535 186.705 144.468C184.571 141.935 186.038 139.935 189.371 140.735C191.371 141.268 192.038 140.735 192.038 138.868C192.038 137.535 191.371 135.668 190.571 134.868C189.505 133.802 189.505 132.602 190.571 130.735C191.638 128.602 191.505 127.935 189.905 127.268C188.705 126.735 186.971 127.002 186.038 127.802C184.038 129.402 182.038 127.402 183.371 125.268C183.771 124.468 182.838 123.268 181.371 122.468C179.371 121.402 178.705 121.402 178.705 122.735C178.705 123.935 178.305 123.935 177.105 122.735C174.971 120.602 173.771 120.735 172.838 123.268ZM181.371 126.602C181.371 129.535 185.638 133.135 186.305 130.735C187.371 127.802 188.971 129.002 188.438 132.335C188.038 134.068 188.438 135.935 189.238 136.335C190.038 136.868 190.705 137.935 190.705 138.735C190.705 139.535 189.905 139.402 188.571 138.335C186.838 137.002 186.305 137.002 185.238 138.602C183.638 141.135 183.771 144.335 185.505 146.068C186.705 147.268 186.171 147.535 183.238 147.268C180.705 147.002 179.505 146.068 179.771 144.868C180.171 142.202 175.905 138.468 175.105 140.735C174.171 143.535 171.638 142.735 172.438 139.802C172.838 138.468 172.305 136.602 171.238 135.668C170.171 134.868 169.771 133.668 170.171 132.868C170.571 132.202 171.638 132.335 172.705 133.135C174.038 134.335 174.838 133.935 176.038 131.802C177.238 129.402 177.105 128.468 175.371 126.335C173.105 123.935 173.238 123.935 177.238 124.202C180.038 124.335 181.371 125.135 181.371 126.602Z" fill="white"/>
<path d="M177.638 133.668C176.438 136.335 176.705 137.268 178.705 139.135C181.105 141.402 181.371 141.268 182.838 138.068C184.038 135.268 184.038 134.068 182.705 132.468C180.438 129.668 179.371 129.935 177.638 133.668ZM181.771 136.602C181.238 137.935 180.571 138.202 179.771 137.402C178.171 135.802 179.638 132.735 181.371 133.802C182.038 134.202 182.171 135.535 181.771 136.602Z" fill="white"/>
<path d="M19.1048 123.402C18.1714 123.802 17.3714 125.135 17.3714 126.602C17.3714 129.668 15.2381 129.935 13.6381 127.002C12.5714 125.002 12.1714 125.002 9.50478 127.668C8.03812 129.135 6.17145 130.468 5.37145 130.468C4.70478 130.468 4.43812 131.402 4.83812 132.468C5.37145 133.535 6.97145 134.468 8.70478 134.468C10.4381 134.468 12.0381 135.402 12.5714 136.468C12.9714 137.668 12.5714 138.468 11.3714 138.468C10.3048 138.468 9.37145 139.668 9.37145 141.135C9.37145 143.135 10.3048 143.802 12.5714 143.802C14.7048 143.802 16.1714 144.735 16.7048 146.468C17.6381 149.402 18.4381 149.668 21.1048 148.068C22.0381 147.402 22.4381 145.935 21.9048 144.735C20.8381 141.802 23.9048 141.668 25.9048 144.602C27.2381 146.335 27.9048 146.202 31.2381 143.135C35.2381 139.402 35.1048 135.535 30.9715 136.735C27.3715 137.668 25.9048 134.735 28.8381 132.602C31.5048 130.602 30.3048 127.802 26.8381 127.802C25.5048 127.802 23.5048 126.602 22.5715 125.268C21.5048 123.935 19.9048 123.002 19.1048 123.402ZM21.7715 127.002C22.1715 128.068 24.1715 129.135 26.3048 129.535C29.7715 130.068 29.9048 130.202 27.1048 131.135C24.5715 131.935 24.4381 132.468 25.6381 135.268C26.7048 137.402 28.3048 138.468 30.5715 138.602H34.0381L30.9715 139.935C29.2381 140.602 28.3048 141.668 28.7048 142.468C29.1048 143.135 28.8381 143.802 28.1715 143.802C27.3715 143.802 26.7048 143.135 26.7048 142.468C26.7048 141.668 25.1048 141.135 23.2381 141.135C20.4381 141.135 19.9048 141.668 20.4381 143.802C21.2381 146.868 18.9714 147.402 17.9048 144.468C17.3714 143.402 15.6381 142.468 13.9048 142.468C12.1714 142.468 10.7048 141.802 10.7048 141.135C10.7048 140.335 11.6381 139.802 12.7048 139.802C15.1048 139.802 15.1048 139.135 13.3714 135.668C12.5714 134.335 10.7048 133.135 9.10478 133.135C6.17145 133.135 6.17145 133.135 9.37145 130.202C11.5048 128.202 12.7048 127.802 13.1048 128.868C13.3714 129.802 15.1048 130.468 16.9714 130.468C19.6381 130.468 20.0381 129.935 19.3714 127.802C18.4381 124.735 20.7048 124.068 21.7715 127.002Z" fill="white"/>
<path d="M16.4381 132.602C14.4381 133.402 16.9715 139.802 19.2381 139.802C22.8381 139.668 24.3048 137.535 22.8381 134.602C21.3715 131.802 19.6381 131.402 16.4381 132.602ZM21.3715 136.602C21.3715 137.668 20.8381 138.468 20.1715 138.468C18.7048 138.468 17.2381 135.002 18.3048 133.935C19.5048 132.735 21.3715 134.335 21.3715 136.602Z" fill="white"/>
<path d="M148.038 158.468C147.105 159.002 146.571 160.735 147.105 162.335C147.905 165.802 145.505 167.535 143.505 164.868C141.505 162.068 138.705 163.402 138.705 167.135C138.705 168.735 137.905 170.868 136.838 171.802C134.171 173.935 135.771 177.535 138.838 176.735C141.505 176.068 142.438 179.002 140.038 180.468C138.305 181.535 139.905 185.135 142.171 185.135C143.238 185.135 144.038 186.068 144.038 187.135C144.038 191.802 148.571 188.068 148.705 183.268C148.705 180.202 152.038 178.602 152.038 181.668C152.038 182.868 152.571 183.802 153.238 183.802C155.238 183.802 157.505 180.202 156.571 178.068C156.171 176.735 156.838 175.402 158.705 174.468C160.971 173.268 161.238 172.602 159.905 171.002C158.971 169.935 157.505 169.268 156.438 169.668C154.438 170.468 154.038 167.668 156.038 165.668C157.905 163.802 150.438 157.002 148.038 158.468ZM150.705 161.935C150.705 163.268 151.505 163.802 152.705 163.268C154.971 162.468 155.371 163.935 153.371 165.935C152.705 166.602 152.438 168.468 152.838 170.068C153.505 172.602 154.171 172.868 156.171 171.668C157.905 170.735 158.705 170.868 158.705 171.802C158.705 172.602 157.771 173.535 156.571 174.068C155.105 174.602 154.705 175.802 155.238 177.935C155.771 179.802 155.505 181.135 154.705 181.135C154.038 181.135 153.371 180.202 153.371 179.135C153.371 176.735 152.171 176.602 149.105 179.002C147.771 179.935 146.705 182.202 146.705 183.935C146.571 186.868 146.438 187.002 144.838 184.868C143.905 183.535 142.705 182.868 142.305 183.268C141.905 183.802 141.905 181.802 142.305 179.135C143.105 174.468 142.971 174.068 140.305 174.735C136.971 175.668 136.438 174.202 139.238 171.935C140.305 171.002 140.838 169.135 140.438 167.802C140.038 166.335 140.438 165.135 141.238 165.135C142.038 165.135 142.705 166.068 142.705 167.135C142.705 169.535 143.905 169.668 147.105 167.135C148.838 165.935 149.371 164.468 148.705 162.602C148.171 161.002 148.438 159.802 149.238 159.802C150.038 159.802 150.705 160.735 150.705 161.935Z" fill="white"/>
<path d="M146.705 170.202C144.171 172.335 143.771 173.402 144.705 175.535C146.038 178.202 146.171 178.202 148.838 176.068C150.838 174.468 151.371 172.868 150.838 170.602L150.038 167.535L146.705 170.202ZM148.838 173.935C148.171 175.802 147.638 175.935 146.305 174.602C145.105 173.402 145.105 172.735 146.705 171.802C149.105 170.335 149.905 171.002 148.838 173.935Z" fill="white"/>
<path d="M45.3715 163.135C44.0381 164.735 44.0381 165.535 45.3715 167.135C46.3048 168.202 46.5715 169.135 45.9048 169.268C45.2381 169.402 43.5048 169.535 42.0381 169.668C40.4381 169.668 39.3715 170.735 39.3715 172.202C39.3715 173.535 38.5715 175.002 37.6381 175.668C36.3048 176.468 36.3048 177.002 38.0381 178.468C39.6381 179.802 40.4381 179.802 42.0381 178.468C44.5715 176.335 49.2381 177.802 46.9715 180.068C46.0381 181.002 45.3715 182.068 45.3715 182.602C45.3715 184.335 49.7715 185.135 51.5048 183.668C52.9715 182.468 53.9048 182.602 55.3715 183.802C56.4381 184.602 57.9048 185.002 58.7048 184.468C60.4381 183.402 60.4381 179.802 58.5715 179.802C57.9048 179.802 57.6381 179.135 58.1715 178.335C58.5715 177.535 60.1715 177.268 61.6381 177.535C63.2381 178.068 64.4381 177.535 64.8381 176.068C65.2381 174.868 66.0381 172.868 66.7048 171.535C68.4381 168.468 64.8381 165.535 62.0381 167.802C60.9715 168.735 58.9715 169.002 57.7715 168.468C55.5048 167.668 55.5048 167.535 57.7715 165.935C59.7715 164.335 59.7715 163.935 58.0381 162.468C56.4381 161.135 55.6381 161.135 53.9048 162.602C52.3048 163.935 51.2381 163.935 49.3715 162.735C47.5048 161.535 46.5715 161.668 45.3715 163.135ZM50.1715 165.268C50.7048 166.335 51.3715 166.335 52.4381 165.268C53.2381 164.468 54.7048 163.802 55.7715 163.802C57.3715 163.802 57.3715 164.202 56.0381 165.802C54.5715 167.535 54.7048 168.202 56.8381 169.668C58.4381 171.002 60.0381 171.135 61.6381 170.335C64.7048 168.735 66.1715 168.868 64.4381 170.602C63.6381 171.402 63.2381 173.002 63.6381 174.068C64.3048 175.668 63.7715 175.935 61.7715 175.268C57.9048 174.068 55.1048 177.668 57.5048 180.735C59.2381 182.735 58.9715 182.868 55.6381 181.935C53.2381 181.402 51.1048 181.668 49.9048 182.602C47.6381 184.468 47.3715 182.335 49.6381 180.068C51.9048 177.802 44.8381 174.735 42.1715 177.002C41.1048 177.935 39.9048 178.068 39.5048 177.402C39.1048 176.602 39.6381 175.802 40.7048 175.268C41.9048 174.868 42.3048 173.668 41.7715 172.335C41.2381 170.735 41.3715 170.335 42.4381 171.002C43.3715 171.535 45.2381 171.135 46.8381 170.068C48.5715 168.868 48.9715 167.802 48.1715 167.135C46.3048 166.068 46.3048 163.802 47.9048 163.802C48.7048 163.802 49.6381 164.468 50.1715 165.268Z" fill="white"/>
<path d="M48.9714 171.535C46.8381 173.935 46.8381 174.068 50.0381 175.802C52.9714 177.402 53.7714 177.402 55.6381 175.402C57.7714 173.268 57.7714 173.002 55.3714 171.135C51.9048 168.602 51.5048 168.602 48.9714 171.535ZM54.7048 172.868C54.7048 174.735 53.2381 175.668 51.2381 174.868C48.4381 173.802 48.9714 171.802 52.0381 171.802C53.5048 171.802 54.7048 172.335 54.7048 172.868Z" fill="white"/>
<path d="M95.3715 177.135C94.9715 178.468 93.2381 179.802 91.6381 180.068C88.3048 180.602 86.7048 185.135 89.9048 185.135C91.1048 185.135 92.0381 186.068 92.0381 187.135C92.0381 188.202 91.1048 189.135 90.1715 189.135C88.7048 189.135 88.1715 190.602 88.4381 194.468C88.5715 198.602 89.1048 199.802 90.8381 199.802C92.1715 199.802 93.6381 198.602 94.0381 197.135C94.4381 195.668 96.0381 194.468 97.3715 194.468C99.1048 194.468 99.6381 195.135 99.1048 197.135C98.5715 199.002 99.1048 199.802 100.438 199.802C101.638 199.802 103.238 198.602 104.038 197.135C104.838 195.535 106.838 194.468 108.705 194.468C111.105 194.468 112.038 193.802 112.038 191.802C112.038 190.068 111.105 189.135 109.371 189.135C107.638 189.135 106.971 188.468 107.505 187.268C107.905 186.202 109.105 185.668 110.171 186.068C111.638 186.602 111.905 185.535 111.638 181.268C111.371 176.602 110.971 175.802 108.438 175.802C106.571 175.802 105.371 176.602 105.371 177.802C105.371 178.868 104.171 179.802 102.705 179.802C101.105 179.802 100.438 179.135 100.838 177.935C101.238 176.868 100.438 175.802 98.8381 175.402C96.9715 175.002 95.9048 175.535 95.3715 177.135ZM102.838 181.135C105.371 181.135 106.705 180.468 106.705 179.135C106.705 178.068 107.371 177.135 108.171 177.135C108.971 177.135 109.371 178.068 108.838 179.135C108.438 180.202 108.705 181.135 109.371 181.135C110.171 181.135 110.705 181.668 110.705 182.468C110.705 183.135 109.771 183.802 108.705 183.802C107.638 183.802 106.705 184.335 106.705 185.002C106.705 185.668 106.305 187.135 105.905 188.335C105.371 189.802 105.771 190.468 107.238 190.468C108.438 190.468 109.371 191.002 109.371 191.802C109.371 192.468 108.171 193.135 106.838 193.135C105.505 193.135 104.038 194.068 103.505 195.135C103.105 196.202 102.171 197.135 101.505 197.135C100.705 197.135 100.438 196.202 100.838 195.135C101.505 193.668 100.705 193.135 97.5048 193.135C94.7048 193.135 93.3715 193.802 93.3715 195.135C93.3715 196.202 92.7048 197.135 91.9048 197.135C91.1048 197.135 90.7048 196.202 91.2381 195.135C91.6381 194.068 91.3715 193.135 90.7048 193.135C89.9048 193.135 89.3715 192.468 89.3715 191.802C89.3715 191.002 90.3048 190.468 91.3715 190.468C92.4381 190.468 93.3715 189.935 93.3715 189.268C93.3715 188.602 93.7715 187.135 94.1715 185.935C94.7048 184.468 94.3048 183.802 92.8381 183.802C91.6381 183.802 90.7048 183.135 90.7048 182.468C90.7048 181.668 91.9048 181.135 93.2381 181.135C94.5715 181.135 96.1715 180.068 96.7048 178.735C97.7715 176.602 97.7715 176.602 98.3048 178.735C98.7048 180.335 100.171 181.135 102.838 181.135Z" fill="white"/>
<path d="M96.1714 186.735C95.2381 189.268 95.5048 189.935 97.6381 190.202C101.638 190.868 104.038 189.535 104.038 186.468C104.038 182.602 97.6381 182.735 96.1714 186.735ZM102.705 186.468C102.705 188.068 98.9714 189.802 97.9048 188.735C96.7048 187.535 98.7048 185.135 100.838 185.135C101.905 185.135 102.705 185.802 102.705 186.468Z" fill="white"/>
</svg>
